<svg width="553" height="417" viewBox="0 0 553 417" fill="none" xmlns="http://www.w3.org/2000/svg">
<path d="M285.521 134.58C281.659 139.928 279.933 146.531 277.976 152.728C275.89 159.334 273.034 165.7 270.636 172.201C269.252 175.952 258.352 196.739 271.859 191.673C278.247 189.278 283.705 182.495 288.223 177.655C294.554 170.871 300.046 162.412 300.916 152.932C302.441 136.304 282.953 142.794 275.275 148.701C270.515 152.362 245.847 180.768 265.946 175.208C277.051 172.137 287.87 157.688 278.894 146.917C269.743 135.935 249.181 143.699 240.968 151.912C239.249 153.632 237.139 158.572 239.846 160.527C243.552 163.203 251.925 159.419 254.833 157.112C265.029 149.025 258.127 135.588 247.901 131.726C230.453 125.137 197.017 131.611 190.502 151.453C184.048 171.107 214.778 169.354 224.86 163.739C246.313 151.788 229.697 123.177 212.982 116.637C196.287 110.104 177.879 119.156 178.42 138.098C178.814 151.87 197.609 158.292 205.998 146.611C212.356 137.759 207.54 125.498 200.187 118.982C192.907 112.53 181.794 112.543 172.711 114.139C166.678 115.199 159.445 118.368 157.775 124.895C156.237 130.909 162.196 134.019 167.359 134.376C180.575 135.292 194.304 122.15 190.196 108.685C184.832 91.104 160.871 87.982 145.949 92.117C129.843 96.58 127.733 114.667 144.42 119.695C149.084 121.101 157.104 123.482 161.242 119.491C166.325 114.589 165.589 104.494 164.198 98.387C160.411 81.766 144.999 68.39 128.668 65.049C123.622 64.017 115.002 62.304 111.795 67.802C108.857 72.838 110.167 79.478 114.14 83.503C122.513 91.985 138.887 91.611 144.521 80.342C150.552 68.281 141.699 52.836 129.535 49.247C119.256 46.214 108.53 48.451 110.47 61.379C111.87 70.714 124.922 73.82 129.891 65.61C135.347 56.596 131.864 43.813 120.869 41.396C115.686 40.257 95.678 43.155 103.486 52.764C106.755 56.788 113.68 54.698 115.771 50.98C119.206 44.873 119.991 33.505 110.266 33.648C102.248 33.766 101.485 45.934 105.27 50.98C109.045 56.013 113.625 56.587 119.441 56.587" stroke="black" stroke-width="46" stroke-linecap="round"/>
<path d="M184.608 77.426C181.494 77.166 178.244 75.552 175.456 74.218C174.914 73.959 173.714 73.478 173.714 72.698C173.714 70.944 179.1 72.914 179.576 73.057C188.879 75.848 198.089 79.403 207.668 81.131C208.141 81.216 212.38 81.861 212.12 81.601C210.445 79.925 207.888 78.899 206.009 77.426C195.805 69.424 184.65 62.824 172.774 57.628C171.859 57.228 169.304 55.645 170.175 56.135C171.709 56.998 172.604 58.899 173.963 60.006C179.764 64.733 186.741 67.404 193.539 70.237C196.431 71.441 199.227 73.006 202.332 73.61C204.724 74.075 200.336 71.666 199.816 71.343C194.539 68.063 187.515 63.892 181.152 63.518C180.724 63.493 178.311 63.141 178.166 63.794C177.744 65.694 180.681 68.052 181.843 69.075C190.337 76.553 201.435 80.904 211.318 86.108C222.722 92.113 233.54 99.283 244.692 105.739C245.444 106.175 246.978 106.869 247.54 107.592C248.23 108.48 247.743 109.093 248.812 109.887C250.082 110.831 251.515 111.513 252.904 112.265C254.674 113.223 256.509 112.974 258.268 113.786C262.206 115.603 265.882 117.267 269.494 119.758C276.5 124.59 287.655 130.687 295.568 124.403C299.22 121.504 301.927 117.573 305.66 114.643C310.414 110.912 314.256 106.545 318.518 102.283C319.127 101.674 323.793 96.761 324.767 97.832C326.1 99.298 322.493 104.849 321.753 106.016C319.197 110.047 317.108 114.289 315.117 118.624C315.001 118.876 312.344 125.225 313.375 125.067C315.726 124.705 318.661 120.926 320.287 119.454C325.209 115.001 330.546 110.952 335.799 106.901C338.923 104.492 342.402 102.164 345.007 99.159C346.361 97.596 341.406 99.508 341.163 99.656C336.638 102.431 333.502 107.378 330.324 111.491C325.854 117.275 320.745 123.015 317.108 129.38C315.644 131.941 314.19 134.949 313.347 137.786C312.445 140.822 314.395 138.775 315.504 137.537C317.783 134.993 319.8 132.228 322.085 129.684C325.086 126.343 327.471 122.308 330.628 119.15C331.67 118.108 333.73 116.904 333.311 119.343C332.489 124.124 329.155 129.018 326.923 133.224C322.178 142.168 318.196 151.466 311.522 159.159C307.419 163.889 303.494 169.818 301.872 175.943C300.908 179.585 299.278 187.518 295.098 188.911" stroke="black" stroke-width="46" stroke-linecap="round"/>
<path d="M258.268 190.902C256.372 192.008 251.949 189.697 250.194 189.077C241.685 186.067 233.917 181.362 226.083 176.966C221.37 174.321 216.564 171.915 211.539 169.915C210.034 169.316 207.4 167.893 205.622 168.09C203.473 168.329 208.462 177.18 208.802 177.823C213.084 185.912 216.745 194.31 221.383 202.211C222.901 204.797 227.749 212.372 226.056 209.897C218.833 199.342 208.227 190.721 197.659 183.768C192.174 180.16 187.06 177.285 180.82 175.279C178.182 174.431 179.376 178.261 179.769 179.676C181.972 187.606 186.594 195.054 190.553 202.211C192.053 204.923 195.108 211.473 198.212 212.884C198.714 213.112 195.983 204.497 195.806 204.063C193.645 198.757 191.095 193.724 188.645 188.552C184.411 179.614 194.794 207.737 200.728 215.649C202.5 218.011 204.732 220.908 207.779 221.649C209.072 221.963 208.514 217.009 208.498 216.285C208.486 215.757 207.437 208.5 206.12 209.87C204.426 211.631 205.494 217.693 205.512 219.879C205.556 225.235 206.109 230.604 208.498 235.474C208.617 235.717 211.873 240.806 211.982 238.958C212.186 235.491 208.563 226.893 204.129 227.234C203.106 227.313 203.182 232.48 203.134 233.206C202.85 237.456 204.27 241.232 206.009 245.041C207.202 247.652 208.457 247.671 205.788 246.644C203.67 245.83 201.937 245.055 199.65 244.764C198.989 244.68 191.373 244.045 194.175 246.147C196.271 247.719 192.16 247.142 191.078 247.142" stroke="black" stroke-width="46" stroke-linecap="round"/>
<path d="M252.296 220.764C251.802 217.306 249.318 227.115 248.342 230.469C246.357 237.291 245.826 243.546 245.826 250.598C245.826 255.525 245.793 259.863 248.314 264.064" stroke="black" stroke-width="46" stroke-linecap="round"/>
<path d="M229.899 251.124C229.899 254.099 229.497 257.274 230.646 260.082C231.835 262.991 233.027 265.745 234.489 268.543C236.981 273.311 242.151 276.432 243.835 281.483" stroke="black" stroke-width="46" stroke-linecap="round"/>
<path d="M281.431 225.621C282.263 229.055 281.515 233.273 280.844 236.666C279.239 244.782 275.892 252.289 269.851 258.065C267.621 260.197 265.215 262.247 262.723 264.071C262.359 264.337 261.153 265.167 261.671 264.002C262.47 262.203 263.867 260.608 265.053 259.066C268.144 255.049 270.643 250.868 272.905 246.33C277.059 238.001 280.611 229.378 284.848 221.099C286.4 218.066 287.903 215.028 289.369 211.953C290.092 210.437 290.2 210.275 289.335 211.728C287.259 215.215 285.792 219.107 283.76 222.653C282.043 225.651 279.537 228.165 278.014 231.212" stroke="black" stroke-width="32" stroke-linecap="round"/>
<path d="M300.38 211.953C298.966 214.651 298.005 217.526 296.755 220.305C293.375 227.826 289.459 235.04 284.571 241.705C281.969 245.253 279.017 248.459 276.15 251.783C275.367 252.691 278.04 250.553 278.221 250.42C283.114 246.815 286.416 241.682 289.162 236.355C291.25 232.304 291.666 228.023 293.062 223.757C293.231 223.24 294.156 219.546 295.099 219.546C295.494 219.546 294.673 220.214 294.46 220.547C293.963 221.324 293.575 222.156 292.924 222.825C292.313 223.453 291.448 223.914 291.06 224.689" stroke="black" stroke-width="32" stroke-linecap="round"/>
<path d="M290.128 237.425C288.601 241.035 287.511 244.644 285.624 248.125C283.118 252.747 280.832 257.503 278.134 262.017C273.43 269.891 267.014 277.525 264.414 286.506C264.076 287.676 260.327 294.643 259.375 291.787" stroke="black" stroke-width="32" stroke-linecap="round"/>
<path d="M256.89 294.583C257.976 297.297 260.888 299.961 262.965 302.038C264.015 303.088 265.098 304.122 266.209 305.11C267.412 306.179 269.049 306.643 270.11 307.871C271.028 308.934 271.706 310.134 272.733 311.046C273.672 311.882 272.955 310.514 272.422 310.114" stroke="black" stroke-width="32" stroke-linecap="round"/>
<path d="M270.248 309.182C271.401 310.144 272.831 310.703 274.01 311.668C275.262 312.692 276.886 313.509 278.307 314.291C278.721 314.518 279.758 315.395 280.188 315.395C280.769 315.395 280.483 314.611 280.188 314.463" stroke="black" stroke-width="32" stroke-linecap="round"/>
<path d="M353.188 243.638C352.7 243.855 352.494 244.647 352.084 245.018C351.212 245.807 350.237 246.384 349.305 247.089C346.885 248.921 345.033 251.404 342.627 253.268C338.917 256.141 336.863 260.136 333.618 263.381C331.632 265.367 329.707 268.174 327.336 269.662C327.168 269.768 326.296 270.485 326.56 269.904C327.39 268.077 328.866 266.441 330.27 265.037C334.663 260.645 338.883 255.816 343.731 251.922C343.812 251.856 346.23 249.935 346.32 250.092C346.803 250.938 345.512 253.263 345.215 253.958C342.928 259.322 338.815 262.99 335.137 267.35C333.815 268.916 335.913 268.677 337.07 268.42C340.949 267.558 344.463 262.822 346.354 259.653C346.64 259.174 350.11 253.944 348.011 254.7C346.631 255.197 345.689 256.326 344.525 257.168C342.395 258.709 340.182 260.007 338.554 262.138C336.649 264.632 340.416 262.819 341.229 262.242C343.302 260.767 345.092 259.063 346.044 256.685" stroke="black" stroke-width="16" stroke-linecap="round"/>
<path d="M352.877 248.297C353.714 248.193 350.468 252.599 350.082 253.095C348.302 255.376 346.705 257.576 344.646 259.636C344.304 259.977 340.166 264.579 342.195 263.001C345.786 260.208 350.329 256.777 352.118 252.474C352.797 250.842 354.069 245.601 351.497 244.915C350.463 244.639 349.037 245.007 348.08 245.329C344.807 246.43 341.531 248.098 338.485 249.713C337.534 250.216 336.213 251.369 337.38 249.937C339.158 247.755 341.023 245.694 342.609 243.362C342.777 243.115 344.64 239.4 344.352 239.496C342.754 240.029 341.212 243.495 340.314 244.708C338.798 246.754 337.315 248.82 335.827 250.886C334.778 252.342 336.452 251.353 337.087 250.886C338.815 249.615 340.208 248.032 341.625 246.434C341.75 246.293 344.472 242.809 343.662 242.809C342.363 242.809 340.603 246.585 340.072 247.435C337.356 251.787 333.915 255.942 330.615 259.86C327.567 263.478 324.154 266.77 320.813 270.111C320.573 270.35 317.961 272.652 319.829 272.165C320.894 271.887 322.054 270.941 322.745 270.111C322.953 269.862 323.777 268.233 322.745 269.007C320.968 270.34 319.375 272.593 317.948 274.27C315.238 277.456 312.86 280.977 310.234 284.245C309.165 285.575 307.902 287.393 310.216 285.298C313.021 282.759 316.275 280.196 318.569 277.187C319.726 275.67 321.158 273.526 321.158 271.509C321.158 270.176 319.348 271.888 319.139 272.113C316.333 275.127 311.79 278.411 310.631 282.468" stroke="black" stroke-width="16" stroke-linecap="round"/>
<path d="M326.473 274.391C325.571 275.085 325.079 276.552 324.54 277.497C323.548 279.238 322.449 280.796 321.123 282.295C318.171 285.635 314.949 288.519 311.752 291.614C308.823 294.45 305.668 297.271 303.089 300.433C300.445 303.674 305.278 299.822 306.109 299.104C309.474 296.197 312.2 292.662 315.359 289.543C318.788 286.158 323.369 283.89 326.559 280.345C326.943 279.918 327.971 278.506 326.456 278.809C325.684 278.963 324.979 279.862 324.385 280.31C322.485 281.746 320.645 283.096 318.88 284.711C314.427 288.786 309.655 292.545 304.452 295.618C302.865 296.556 298.978 299.521 296.876 298.586C296.543 298.438 297.462 297.341 297.497 297.292C299.671 294.233 301.628 291.017 303.555 287.8C304.431 286.338 308.066 281.664 307.818 279.43C307.753 278.849 307.159 279.06 306.834 279.327C304.131 281.549 302.288 285.527 300.38 288.37C298.907 290.563 297.399 292.728 295.789 294.824C295.073 295.756 293.753 298.053 292.389 298.224C292.134 298.256 295.551 294.297 296.048 293.789C298.279 291.505 300.728 289.477 303.175 287.438" stroke="black" stroke-width="16" stroke-linecap="round"/>
<path d="M340.452 144.855C342.134 158.311 328.928 168.834 321.175 177.903C320.312 178.913 316.473 185.04 320.329 182.062C323.915 179.293 327.089 175.751 329.511 171.915C331.595 168.612 331.712 164.594 333.583 161.319C334.191 160.256 333.249 163.745 332.997 164.943C332.374 167.895 331.637 170.637 330.27 173.347C326.961 179.907 322.393 185.83 318.19 191.83C317.76 192.443 314.192 197.164 316.843 194.557C320.474 190.987 324.333 187.457 327.025 183.081C328.074 181.377 328.958 179.592 330.063 177.921C330.793 176.815 330.322 178.025 330.097 178.576C327.428 185.128 323.11 191.321 319.363 197.284C318.162 199.195 316.978 201.112 315.791 203.031C315.602 203.335 315.22 204.33 315.29 203.98C315.738 201.741 318.218 199.061 319.467 197.232C320.459 195.778 321.449 194.34 322.677 193.073C322.755 192.992 323.954 191.768 323.954 192.003C323.954 193.709 322.347 195.761 321.365 197.042C319.905 198.946 317.983 200.518 315.911 201.702" stroke="black" stroke-width="16" stroke-linecap="round"/>
<path d="M323.988 186.791C322.903 193.302 319.705 199.627 315.29 204.515C313.486 206.512 311.961 208.731 310.562 211.021C309.732 212.378 312.711 208.666 313.91 207.621C315.697 206.063 317.633 204.64 319.311 202.961C320.778 201.495 318.07 205.467 317.775 205.878C315.673 208.813 314.252 212.19 311.908 214.973C311.137 215.888 309.954 217.599 311.563 215.991" stroke="black" stroke-width="16" stroke-linecap="round"/>
<path d="M313.737 214.748C312.651 217.007 311.968 219.503 310.009 221.203C308.415 222.586 306.995 224.387 305.35 225.621" stroke="black" stroke-width="16" stroke-linecap="round"/>
<path d="M306.903 225.621C306.257 226.518 304.846 227.901 305.971 225.931" stroke="black" stroke-width="16" stroke-linecap="round"/>
<path d="M316.533 208.225C320.179 201.099 322.917 193.682 325.852 186.239C327.907 181.029 330.034 175.85 331.754 170.517C333.046 166.511 334.343 162.336 336.103 158.523" stroke="black" stroke-width="16" stroke-linecap="round"/>
<path d="M343.869 145.787C343.869 149.076 343.96 152.392 343.489 155.658C342.63 161.616 339.999 167.496 337.967 173.14C336.481 177.268 335.18 181.466 333.48 185.514C333.217 186.14 332.246 189.354 332.997 187.102" stroke="black" stroke-width="16" stroke-linecap="round"/>
<path d="M338.278 171.259C337.986 176.514 336.455 182.406 333.86 187.033C332.378 189.674 329.723 192.1 327.716 194.35C326.209 196.039 324.781 197.76 323.367 199.527" stroke="black" stroke-width="16" stroke-linecap="round"/>
<path d="M335.171 60.672C335.171 60.367 335.24 60.068 334.929 60.482C333.855 61.915 332.629 63.192 331.374 64.468C329.126 66.755 326.967 69.124 324.627 71.32C319.964 75.693 314.814 78.981 309.354 82.278C298.591 88.777 287.78 95.105 276.806 101.227C275.061 102.201 277.013 101.385 277.599 100.986C279.39 99.766 281.235 98.47 282.811 96.982C285.371 94.565 287.46 91.683 289.645 88.94C292.956 84.785 296.442 80.85 300.31 77.205C303.155 74.524 306.073 71.92 308.974 69.301C310.028 68.349 311.722 67.184 312.115 65.711C312.652 63.697 308.119 67.013 307.835 67.264C302.037 72.397 296.253 77.427 290.267 82.347C287.704 84.453 284.999 86.548 282.708 88.957C281.167 90.576 283.836 88.83 284.192 88.629C290.175 85.252 295.404 81.642 300.31 76.756C303.517 73.563 306.39 69.97 309.975 67.178C312.065 65.55 314.425 64.267 316.636 62.812C318.041 61.887 316.673 62.72 316.153 63.071C314.077 64.472 312.1 66.045 310.147 67.609C306.264 70.719 302.576 74.048 298.205 76.48C293.083 79.329 287.553 81.5 282.155 83.763C278.99 85.09 272.525 86.58 270.696 90.044C269.961 91.438 271.274 91.548 272.319 91.287C275.926 90.385 278.841 87.402 282.362 86.144" stroke="black" stroke-width="16" stroke-linecap="round"/>
<path d="M272.422 88.629C265.275 88.058 258.433 85.401 251.73 83.021C246.861 81.291 241.946 79.648 237.251 77.481C234.526 76.223 239.846 77.812 240.444 78.102C245.418 80.514 250.193 83.571 254.819 86.576C257.166 88.1 261.626 91.667 264.76 91.097C265.915 90.887 262.513 87.707 262.43 87.628C257.624 83.051 252.264 79.094 247.157 74.858C244.403 72.574 241.649 70.343 239.08 67.851C238.861 67.638 237.513 66.47 237.527 66.488C240.98 70.927 246.511 73.593 252.162 73.719C253.304 73.744 249.772 72.629 249.297 72.407C245.168 70.48 240.541 69.449 236.215 68.058C230.595 66.251 224.77 64.066 219.683 61.052C219.183 60.755 214.265 57.374 216.783 59.636C219.622 62.187 222.502 64.372 225.826 66.263C227.052 66.961 228.382 67.836 229.796 68.093C229.838 68.1 230.638 68.127 230.175 68.127" stroke="black" stroke-width="16" stroke-linecap="round"/>
<path d="M456.504 325.228C457.168 332.867 457.649 340.193 457.649 347.913C457.649 349.976 457.265 354.942 458.922 356.599C459.817 357.494 460.202 352.666 460.258 352.463C460.818 350.463 461.939 348.528 462.199 346.45C462.46 344.36 462.231 350.037 462.231 350.681C462.231 355.503 461.474 359.5 460.258 364.14C459.862 365.655 457.574 372.177 458.922 373.526C459.248 373.851 465.437 359.081 463.631 359.081C461.088 359.081 458.351 381.512 460.577 381.83C466.71 382.706 466.349 363.043 461.913 360.29C456.822 357.13 449.285 362.267 445.814 365.508C441.746 369.306 433.805 376.513 434.264 382.943C434.494 386.157 440.026 382.749 440.978 381.798C445.127 377.648 445.989 371.588 445.496 366.017C445.3 363.804 443.802 358.55 441.01 362.04C437.579 366.328 434.922 373.338 434.742 378.807C434.63 382.199 436.555 383.773 439.832 382.116C444.894 379.556 448.016 373.103 448.423 367.608C448.57 365.626 448.701 358.323 444.923 359.145C440.566 360.092 437.826 367.263 436.555 370.917C435.476 374.019 436.721 375.349 439.96 374.989C444.886 374.442 449.033 368.519 450.523 364.172C451.583 361.077 451.864 356.596 451.318 353.322C450.993 351.375 448.694 356.611 448.614 356.854C447.393 360.561 445.947 365.272 446.227 369.198C446.486 372.814 449.241 367.301 449.504 366.462C450.383 363.665 450.777 360.852 450.777 357.936C450.777 357.877 451.034 359.946 451.35 360.735" stroke="black" stroke-width="16" stroke-linecap="round"/>
<path d="M464.522 353.863C464.522 361.169 461.658 382.9 461.658 375.594C461.658 371.947 462.381 368.315 462.199 364.681C461.941 359.513 458.866 355.959 456.631 351.572C456.3 350.922 455.271 346.418 454.786 346.418C453.485 346.418 452.903 350.413 452.495 351.35C452.139 352.169 452.076 357.464 452.368 357.172C453.123 356.417 453.605 348.971 455.072 349.95C456.132 350.656 456.898 352.842 457.65 353.863C459.21 355.983 460.929 357.985 462.454 360.131C464.37 362.828 465.349 366.71 468.085 368.626C468.257 368.746 470.322 357.213 469.899 355.613C469.111 352.638 467.41 349.137 465.954 346.418C465.482 345.538 464.522 341.982 464.522 342.536C464.522 347.056 466.813 360.419 466.813 355.899C466.813 349.718 464.522 343.895 464.522 337.605C464.522 334.881 465.406 342.98 465.922 345.654C467.414 353.387 467.385 361.172 467.385 369.008C467.385 373.409 467.385 377.81 467.385 382.212C467.385 384.87 465.672 387.776 464.267 389.943C463.129 391.7 460.201 397.067 460.545 395.002C460.967 392.466 462.342 389.99 463.345 387.652C463.697 386.83 464.305 385.383 463.822 384.47C463.363 383.603 461.936 386.518 461.849 386.634C458.618 390.943 453.274 394.085 448.614 396.561C443.735 399.152 443.758 396.274 445.687 392.202C446.87 389.704 450.015 384.648 448.391 381.671C446.616 378.417 437.315 383.369 435.442 384.216C434.108 384.819 424.033 388.797 430.224 388.797C434.021 388.797 437.817 388.797 441.614 388.797" stroke="black" stroke-width="16" stroke-linecap="round"/>
<path d="M460.513 396.242C458.19 398.856 456.677 398.533 453.068 398.533C449.889 398.533 447.126 399.564 444.032 399.679C438.606 399.88 433.144 399.106 427.647 399.106C411.564 399.106 397.977 388.043 383.645 382.18C379.976 380.679 376.435 379.067 372.764 377.598C370.272 376.601 367.676 375.884 365.223 374.703C363.752 373.994 361.338 371.469 359.401 372.317C359.39 372.321 361.583 374.483 362.041 374.798C364.181 376.27 366.29 378.116 368.309 379.762C374.318 384.658 380.877 387.222 388.067 389.943C392.849 391.752 397.8 395.67 402.989 395.67C408.475 395.67 414.59 396.299 419.247 392.806C423.952 389.277 428.438 380.55 428.983 374.83C429.723 367.059 415.447 373.995 412.979 375.053" stroke="black" stroke-width="16" stroke-linecap="round"/>
<path d="M434.742 381.352C423.156 382.034 412.362 384.89 400.825 382.498C396.167 381.532 392.581 381.135 388.385 378.775C384.679 376.69 389.479 379.099 390.771 380.016C396.367 383.987 401.327 386.658 408.334 387.047C412.676 387.289 416.008 387.384 420.17 388.797C423.916 390.07 422.555 391.717 420.424 393.729C418.06 395.961 416.882 399.539 413.106 399.679C410.743 399.766 416.615 398.95 417.624 398.501C424.241 395.56 431.408 393.443 436.587 388.097C439.228 385.372 441.438 379.807 440.15 375.944C439.504 374.004 439.248 371.441 437.86 369.898C435.812 367.624 432.258 367.608 429.269 367.608C424.794 367.608 420.318 367.608 415.843 367.608C411.008 367.608 415.431 368.18 417.593 368.18C420.275 368.18 424.962 367.287 427.042 365.317C428.946 363.513 425.684 364.752 424.974 365.285C422.236 367.339 417.261 368.882 413.997 369.898C409.731 371.227 406.079 372.762 401.494 372.762C393.794 372.762 386.512 372.699 379.063 370.471C372.866 368.618 367.212 366.017 361.246 363.631C359.086 362.767 364.429 366.243 365.127 366.717C373.471 372.379 382.133 375.053 392.235 375.053C393.904 375.053 399.235 374.511 399.235 372.189C399.235 368.612 382.303 365.965 379.508 365.89C375.336 365.777 371.239 364.658 367.164 363.726C365.019 363.236 362.743 362.967 360.578 362.485C358.061 361.926 360.919 364.669 361.437 365.317" stroke="black" stroke-width="16" stroke-linecap="round"/>
<path d="M369.454 379.634C368.223 379.361 367.405 377.856 366.018 377.471C363.551 376.785 361.05 376.277 358.573 375.625C352.146 373.934 347.708 368.867 342.061 365.667C335.761 362.097 330.022 355.961 324.784 351C322.806 349.125 320.336 347.855 318.23 346.132C316.135 344.417 312.698 341.291 310.149 340.691C304.266 339.307 299.548 333.074 293.859 331.401C293.212 331.21 291.18 329.433 290.55 329.937C289.647 330.659 291.171 332.276 291.568 332.673C294.576 335.682 298.325 338.183 301.59 340.946C306.372 344.991 312.005 347.783 317.212 351.254C320.432 353.401 324.313 355.023 327.934 356.44C332.108 358.073 336.392 360.429 340.788 361.308C342.596 361.67 343.937 362.994 345.656 363.472C349.275 364.477 352.603 365.701 356.442 365.858C359.317 365.975 365.028 367.051 362.264 362.708C358.503 356.798 351.727 355.189 346.101 351.572C339.661 347.432 333.012 343.143 327.043 338.368C324.55 336.373 321.326 333.723 318.485 332.228C317.398 331.656 316.113 331.742 315.049 331.21C313.803 330.587 313.104 329.386 311.612 329.237C309.234 328.999 307.517 326.081 305.599 325.228C304.041 324.536 300.575 321.828 299.618 320.392C299.294 319.907 299.529 321.566 299.618 322.142C300.021 324.767 302.353 327.059 303.722 329.237C306.67 333.928 309.878 338.438 312.949 342.982C314.652 345.504 314.682 349.635 316.735 351.859C318.815 354.113 320.753 357.89 322.175 360.735C324.429 365.244 328.342 366.587 332.802 368.753C335.957 370.286 338.653 370.295 341.965 371.171C344.078 371.731 344.72 372.762 347.119 372.762" stroke="black" stroke-width="16" stroke-linecap="round"/>
<path d="M437.033 246.196C429.941 246.703 422.743 250.054 415.843 251.669C405.46 254.099 394.258 251.413 384.09 255.073C381.892 255.865 379.816 258.386 383.581 257.332C392.423 254.857 401.059 251.68 409.989 249.505C410.664 249.341 420.703 246.656 416.734 246.769C413.771 246.854 410.711 247.832 407.762 248.201C400.29 249.135 392.736 250.015 385.204 250.174C380.847 250.265 376.485 250.205 372.127 250.205C370.377 250.205 375.596 250.75 377.345 250.778C387.618 250.941 396.865 248.267 406.902 246.515C409.003 246.148 413.561 246.504 415.27 245.051C416.138 244.314 415.708 243.495 414.666 243.365C407.957 242.526 402.133 244.302 395.671 245.369C392.229 245.938 382.329 245.971 380.209 249.633C378.284 252.957 375.775 254.236 372.891 256.76C371.868 257.655 368.481 258.831 367.132 259.337C364.315 260.393 360.938 261.143 358.446 262.805C354.979 265.116 361.6 266.241 363.441 266.241C366.549 266.241 369.656 266.241 372.764 266.241C375.495 266.241 377.265 264.268 379.763 263.505C382.488 262.672 384.661 261.9 387.526 261.627C393.353 261.073 399.103 259.694 404.962 259.368C411.55 259.002 418.101 257.078 424.751 257.078C427.945 257.078 432.049 255.591 434.869 254.087C438.478 252.162 442.684 252.068 446.164 249.633C450.501 246.596 459.76 246.222 459.94 239.897C459.99 238.147 462.488 235.315 459.686 235.315C455.826 235.315 451.821 234.998 447.977 235.347C442.14 235.878 434.05 236.838 428.888 239.897C426.975 241.03 424.577 241.042 422.429 241.042C421.431 241.042 419.872 242.198 420.997 242.76" stroke="black" stroke-width="16" stroke-linecap="round"/>
<path d="M374.73 252.119C373.68 251.186 370.565 250.739 369.2 250.654C363.59 250.303 358.008 249.441 352.389 249.16C349.086 248.995 348.85 248.997 348.85 245.898C348.85 243.483 349.939 240.2 351.366 238.239C355.291 232.842 359.478 227.259 364.555 222.865C370.048 218.112 372.934 210.73 377.827 205.446C379.249 203.91 381.754 200.358 383.938 200.358C388.331 200.358 377.93 214.805 376.998 216.284C374.952 219.53 372.091 222.846 371.357 226.736C370.867 229.335 370.507 231.056 369.256 233.428C368.399 235.051 366.857 236.877 366.767 238.681C366.709 239.844 365.078 242.14 364.279 242.939C363.495 243.723 364.841 239.548 365.053 239.123C366.713 235.804 367.729 232.446 369.034 229.004C370.286 225.705 371.683 222.435 373.265 219.271C374.451 216.899 376.721 214.361 376.721 211.584C376.721 206.397 371.412 212.175 369.643 213.907C367.235 216.264 364.387 217.818 362.564 220.653C361.479 222.341 360.425 223.843 359.025 225.243C357.975 226.293 357.166 225.809 358.113 224.441C359.807 221.993 362.035 219.761 364.03 217.556C367.746 213.449 369.987 208.24 373.265 203.87C374.511 202.209 375.719 200.574 376.472 198.616C377.152 196.848 377.717 196.434 377.717 198.644C377.717 205.91 375.571 213.044 372.242 219.464C371.17 221.532 369.377 227.573 372.74 222.865C374.285 220.701 376.204 218.734 377.993 216.782C379.04 215.64 379.239 214.441 380.592 213.409C382.38 212.046 384.093 210.63 385.459 208.819C389.119 203.962 391.495 198.217 395.136 193.363C398.907 188.335 402.124 182.668 405.118 177.243C406.947 173.927 408.686 170.587 410.454 167.233C412.145 164.027 415.536 161.813 417.035 158.44C417.72 156.899 419.864 153.342 417.533 156.45C415.864 158.675 414.156 160.83 412.445 163.03C408.684 167.866 404.075 172.939 399.671 177.16C396.586 180.116 394.459 183.74 391.652 186.948C389.888 188.964 387.942 190.749 386.288 192.892C385.533 193.871 384.271 194.883 385.79 194.883C393.829 194.883 400.583 187.086 405.864 181.943C406.145 181.67 409.352 178.406 409.542 179.261C409.928 180.997 408.559 184.11 407.551 185.455C404.79 189.136 401.108 192.007 398.316 195.658C396.132 198.513 393.163 200.936 392.261 204.727C391.38 208.425 389.041 211.817 387.284 215.013C384.824 219.484 380.963 222.613 378.214 226.736" stroke="black" stroke-width="16" stroke-linecap="round"/>
<path d="M426.491 124.707C426.284 132.393 421.165 139.965 417.588 146.523C415.385 150.562 414.205 154.566 411.035 158.053C410.405 158.746 405.546 164.756 404.897 164.496C404.735 164.431 408.558 158.904 408.823 158.551C411.376 155.147 413.593 151.758 415.791 148.127C417.368 145.522 419.352 142.886 420.574 140.136C421.232 138.656 423.007 137.897 423.007 139.943C423.007 149.304 420.261 157.286 416.537 165.768C415.25 168.7 413.925 171.826 413.081 174.92C412.806 175.928 412.783 177.919 411.837 178.459C411.733 178.519 414.825 171.997 415.542 170.717C418.067 166.207 420.672 161.892 423.035 157.362C424.868 153.849 427.7 149.496 428.482 145.583C429.458 140.704 432.9 136.477 434.703 131.869C436.534 127.189 439.24 122.504 441.92 118.293C444.493 114.25 448.914 110.399 450.353 105.795C451.253 102.915 452.785 100.105 454.059 97.361C455.065 95.195 455.821 92.471 457.349 90.615C458.466 89.258 458.797 87.544 459.34 85.914C459.761 84.651 458.359 89.169 458.068 89.868C456.214 94.317 452.87 97.665 449.883 101.315C449.112 102.258 444.409 108.862 444.409 104.799C444.409 102.063 446.77 99.251 448.39 97.168C449.34 95.947 450.649 94.621 451.764 93.463C452.397 92.804 452.591 91.431 453.367 90.974C455.931 89.466 454.324 88.978 453.478 87.38C452.327 85.205 449.046 90.935 448.611 91.859C448.069 93.011 448.739 94.285 447.893 95.343C446.868 96.624 446.311 98.606 445.625 100.099C444.474 102.605 442.603 106.711 442.418 109.389C442.239 111.989 442.096 114.892 441.201 117.352C440.434 119.461 439.897 121.396 438.547 123.214C437.765 124.266 436.445 125.334 436.445 126.698C436.445 127.974 438.58 130.047 439.929 130.182C441.747 130.364 442.484 129.893 443.524 128.468C445.473 125.796 447.606 123.406 449.662 120.836C449.902 120.537 451.991 117.67 450.879 117.74C450.342 117.773 448.99 120.807 448.501 121.334C443.346 126.885 438.121 133.609 436.335 141.242C435.303 145.65 432.472 149.522 431.966 154.072C431.799 155.573 428.979 157.059 428.482 158.551" stroke="black" stroke-width="16" stroke-linecap="round"/>
<path d="M464.814 58.015C464.516 61.599 462.757 64.523 462.215 67.969C461.242 74.164 458.143 80.418 455.247 85.887C454.384 87.518 457.622 82.995 458.344 81.297C459.081 79.566 459.749 77.83 460.335 76.043C460.743 74.799 461.736 74.19 462.215 73.057C463.649 69.668 462.628 78.504 462.436 79.306C460.991 85.35 458.39 92.129 455.856 97.831C454.698 100.436 453.917 103.188 452.759 105.795C452.312 106.801 452.372 107.68 452.372 108.781C452.372 109.8 451.476 109.921 451.376 110.772C451.342 111.067 450.602 111.892 450.602 111.657C450.602 110.943 451.79 110.197 452.151 109.666C453.427 107.784 454.712 105.61 455.745 103.583C458.183 98.8 461.442 94.179 461.801 88.624C462.646 75.519 463.338 62.59 464.787 49.554C465.267 45.228 464.317 32.15 464.317 36.504C464.317 38.628 466.054 41.322 467.054 43.112C468.915 46.443 470.712 50.145 470.787 54.034C470.86 57.865 467.948 60.757 467.801 64.596C467.78 65.13 466.861 67.325 466.805 65.868C466.689 62.851 467.567 59.535 467.911 56.522C468.537 51.048 468.298 45.5 468.298 39.987C468.298 38.224 468.73 35.805 467.801 34.236C467.011 32.904 466.613 31.393 466.28 29.895C465.59 26.789 462.816 26.59 460.584 25.388C458.942 24.504 456.539 24.172 454.667 24.172C452.647 24.172 455.718 27.068 456.077 27.655C457.983 30.774 460.833 34.606 460.833 38.328C460.833 40.134 460.925 38.69 460.584 37.803C459.714 35.541 459.635 33.399 457.321 31.886C455.753 30.861 453.423 29.205 452.372 27.628C451.289 26.004 451.529 26.162 453.395 26.162C457.746 26.162 461.286 23.949 459.589 19.195C458.477 16.083 454.653 16.208 451.874 16.208C447.084 16.208 441.575 14.256 437.054 15.821C433.175 17.164 433.083 21.048 436.445 23.066C438.11 24.065 443.677 25.883 441.92 25.056C439.787 24.053 438.622 22.013 436.445 20.909C433.81 19.572 432.204 20.421 429.865 21.794C424.864 24.729 419.144 26.694 414.74 30.42C413.708 31.294 405.488 40.522 409.099 40.07C411.823 39.73 412.989 35.869 414.574 34.126C417.241 31.192 419.764 30.674 423.45 29.867C429.58 28.527 435.234 27.979 441.588 27.683C442.717 27.631 449.666 28.153 445.404 28.153" stroke="black" stroke-width="16" stroke-linecap="round"/>
<path d="M470.289 66.476C470.289 68.684 470.6 71.133 469.764 73.223C468.68 75.932 467.303 78.899 467.303 81.905" stroke="black" stroke-width="16" stroke-linecap="round"/>
<path d="M435.948 22.181C432.917 22.956 429.811 24.862 426.989 26.273C422.608 28.463 417.824 29.733 413.275 31.637C408.944 33.45 405.609 36.329 401.855 39.075C400.145 40.327 398.223 41.288 396.629 42.697C395.061 44.084 394.155 45.926 392.758 47.453C390.224 50.223 388.564 53.97 386.565 57.131C383.22 62.418 379.527 67.334 376.721 72.946C374.074 78.242 372.091 83.386 370.5 89.094C369.715 91.909 368.397 94.296 367.099 96.891C366.89 97.309 365.212 100.524 366.491 98.606C374.371 86.786 379.693 74.123 385.68 61.333C386.971 58.574 389.701 55.456 392.675 54.366C393.923 53.908 395.291 54.276 396.519 53.813C397.569 53.416 398.617 52.585 399.616 52.043C400.83 51.384 402.139 50.074 403.099 49.057C404.364 47.717 402.691 50.134 402.325 51.13C400.434 56.288 400.071 61.552 398.399 66.753C397.948 68.155 396.608 75.471 398.122 70.928C398.629 69.409 398.734 67.861 399.616 66.476C400.683 64.799 400.678 61.998 402.215 60.614C402.789 60.098 403.578 62.145 403.597 62.495C403.66 63.632 403.273 64.48 402.823 65.509C402.179 66.98 400.857 69.229 399.837 70.43C398.454 72.057 397.793 74.168 396.519 75.933C395.193 77.768 393.759 79.43 392.039 80.91C389.714 82.911 388.174 85.985 386.205 88.348C383.862 91.159 381.983 94.426 379.707 97.334C376.864 100.967 374.057 104.669 371.744 108.67C368.154 114.88 365.082 121.53 360.546 127.113C360.274 127.447 359.025 127.891 359.025 128.357C359.025 128.381 360.982 126.954 361.071 126.864C365.309 122.627 368.171 117.093 372.242 112.652C376.303 108.221 381.438 103.535 382.694 97.444C383.346 94.279 383.413 90.31 386.675 88.679C390.996 86.519 385.258 97.748 384.574 98.827C377.774 109.556 371.015 120.007 363.007 129.795C358.016 135.894 353.995 142.797 349.845 149.482C347.875 152.656 345.561 156.445 344.371 160.017C343.956 161.26 344.334 160.759 344.868 159.823C345.44 158.823 347.113 157.834 347.965 156.947C352.172 152.572 353.905 146.529 358.306 142.127C360.241 140.192 362.07 138.364 364.03 136.403C364.445 135.988 365.716 134.516 365.716 133.943C365.716 133.205 363.078 136.14 362.896 136.376C357.187 143.776 351.162 151.659 346.97 160.044C345.876 162.232 345.084 164.721 344.094 166.984C343.645 168.012 342.144 172.514 341.882 171.989" stroke="black" stroke-width="16" stroke-linecap="round"/>
<path d="M389.661 83.896C388.561 84.14 387.754 86.489 387.284 87.38C385.65 90.471 384.101 93.505 382.583 96.67C377.152 107.998 369.972 118.408 363.892 129.353C362.998 130.961 363.701 131.651 364.776 129.85C367.477 125.325 370.496 121.022 373.237 116.523C377.597 109.368 380.729 100.778 381.864 92.467C382.007 91.423 383.156 79.68 380.177 80.052C377.281 80.414 375.822 89.314 375.2 91.334C373.144 98.016 370.36 104.467 368.316 111.159C368.064 111.982 364.532 122.583 368.647 121.113C370.804 120.343 372.083 117.391 373.237 115.638C375.48 112.232 377.385 108.93 378.601 105.02C380.32 99.497 381.933 94.325 384.961 89.37C386.183 87.371 388.223 86.882 390.38 86.882C391.161 86.882 391.449 89.823 392.15 88.596C394.515 84.457 397.101 80.425 399.118 76.154C400.304 73.641 400.564 70.932 402.104 68.578C403.835 65.93 404.313 63.106 404.62 60.034C404.901 57.222 406.583 54.84 406.583 51.822C406.583 49.669 404.592 51.67 403.099 52.043" stroke="black" stroke-width="16" stroke-linecap="round"/>
<path d="M358.306 79.914C357.803 81.173 353.611 86.255 354.159 87.214C354.604 87.994 355.298 85.824 355.845 85.112C356.73 83.962 357.625 82.82 358.527 81.684C361.031 78.528 363.428 75.316 366.269 72.449C368.444 70.253 371.502 68.261 373.127 65.591C375.029 62.466 358.383 65.48 357.587 65.702C350.601 67.654 343.998 70.435 337.237 73.002C336.954 73.109 330.247 75.808 330.269 75.822C331.859 76.834 338.159 72.223 339.228 71.508C344.871 67.736 349.935 63.197 354.878 58.568C355.156 58.308 360.236 53.771 357.2 54.144C354.454 54.481 352.613 57.438 351.062 59.398C349.137 61.83 333.996 79.247 337.735 81.573C340.46 83.269 346.281 79.685 348.407 78.421C352.421 76.036 356.659 72.758 358.472 68.301C359.555 65.64 359.749 61.852 357.477 59.73C354.797 57.226 351.019 58.342 347.854 59.011C342.058 60.236 336.675 62.74 330.877 63.988C327.737 64.663 324.56 65.146 321.393 65.674C320.435 65.834 318.937 65.909 318.103 66.587C316.678 67.745 318.881 68.965 319.983 68.965C321.352 68.965 322.4 66.664 323.08 65.757C325.577 62.428 327.488 56.119 332.426 56.024C336.148 55.953 339.116 55.524 342.656 54.255C345.263 53.32 343.375 51.899 343.375 53.536" stroke="black" stroke-width="16" stroke-linecap="round"/>
<path d="M374.233 61.001C373.473 61.02 370.329 61.958 370.832 60.448C371.658 57.97 374.426 55.192 375.947 53.094C377.268 51.271 379.042 49.888 380.371 48.117C381.324 46.846 377.761 49.952 376.638 51.075C372.741 54.972 367.744 57.784 363.118 60.697C362.352 61.179 355.792 66.167 357.117 62.19C358.406 58.326 361.182 54.876 363.781 51.822C366.854 48.211 369.626 44.544 374.067 42.587C382.053 39.067 391.171 39.542 399.505 36.863C401.156 36.332 400.755 36.912 399.56 38.107C397.88 39.788 395.74 41.12 393.588 42.089C386.831 45.129 378.915 44.3 372.242 47.37C369.221 48.76 366.561 50.339 364.058 52.485C363.673 52.815 362.467 54.541 362.316 53.481C361.575 48.295 367.869 47.761 371.523 47.591C375.527 47.405 379.547 47.727 383.551 47.536C383.845 47.522 387.63 46.332 386.344 46.098C382.229 45.35 378.621 42.506 374.178 41.84C370.583 41.301 366.906 40.736 363.283 41.37C359.509 42.03 356.861 44.377 353.551 46.07C349.383 48.203 346.613 51.594 343.154 54.559C341.294 56.154 341.853 54.204 342.656 52.596C343.949 50.011 347.251 48.654 349.624 47.508C350.612 47.031 357.883 43.084 354.242 43.084C349.801 43.084 344.228 44.125 340.002 45.462C338.111 46.061 332.121 49.621 337.514 48.448C340.662 47.764 343.751 45.845 346.749 44.688C349.47 43.637 352.236 42.705 354.933 41.591C358.933 39.939 362.923 38.334 366.878 36.614C368.95 35.713 370.771 34.408 372.85 33.517C375.142 32.535 377.872 32.43 379.984 31.139C383.487 28.998 387.858 26.429 392.04 26.162C395.106 25.967 397.602 24.255 400.611 24.172C403.682 24.086 407.038 22.875 409.957 22.07C415.012 20.676 420.122 20.011 425.109 18.586C426.826 18.096 429.185 17.701 430.971 17.701C433.294 17.701 426.326 17.701 424.003 17.701C420.625 17.701 417.614 19.081 414.436 19.195C411.935 19.284 409.678 21.428 407.302 22.07C405.157 22.65 402.537 23.319 400.611 24.282C399.431 24.872 395.808 26.162 397.127 26.162" stroke="black" stroke-width="16" stroke-linecap="round"/>
<path d="M176.379 239.442C180.249 239.442 173.21 245.031 172.183 245.944C171.753 246.326 170.169 248.219 170.344 247.084C170.699 244.774 172.191 242.778 173.375 240.841C174.453 239.076 175.405 237.577 177.545 237.577C178.092 237.577 180.305 237.902 180.576 237.292C183.362 231.023 185.063 223.964 184.254 217.088C183.952 214.521 181.846 212.437 179.85 211C175.606 207.944 178.276 213.111 178.918 215.404C179.798 218.548 178.966 220.471 177.053 222.657C176.19 223.643 176.397 225.131 175.68 223.123C175.095 221.486 174.664 219.756 173.841 218.227C172.372 215.499 170.231 213.306 168.686 210.56C166.712 207.051 165.501 203.843 164.049 200.173C162.195 195.482 159.013 191.279 157.159 186.548C155.575 182.505 153.498 178.181 152.963 173.855C152.435 169.592 151.408 164.667 150.165 160.541C148.165 153.901 149.133 146.613 148.87 139.766C148.825 138.604 148.397 139.987 148.404 140.44C148.454 143.58 149.703 146.503 150.632 149.454C152.371 154.982 153.893 160.224 153.999 166.032C154.059 169.312 154.932 168.236 154.932 165.67C154.932 162.389 154.932 159.107 154.932 155.826C154.932 154.574 155.009 157.276 155.294 157.847C155.958 159.175 158.454 160.999 159.957 161.111C162.106 161.27 158.171 159.468 157.625 159.349C153.834 158.525 149.484 158.83 145.606 158.313" stroke="black" stroke-width="16" stroke-linecap="round"/>
<path d="M133.484 152.718C133.083 150.714 132.384 149.526 132.577 147.304C132.926 143.294 133.274 140.112 131.152 136.399" stroke="black" stroke-width="16" stroke-linecap="round"/>
<path d="M127.422 125.675C125.212 126.504 126.832 135.706 127.241 137.28C127.995 140.18 129.351 143.056 130.479 145.828C131.556 148.476 131.883 151.369 132.81 154.065C133.846 157.077 136.117 159.443 137.887 162.017C138.573 163.015 138.814 162.677 138.509 161.577C138.027 159.844 136.491 158.157 135.297 156.888C131.573 152.932 128.5 148.676 125.583 144.118C124.38 142.239 122.284 140.205 121.801 138.031C121.108 134.911 121.347 138.969 121.594 140.155C122.237 143.24 123.196 146.584 124.392 149.506C125.224 151.541 124.939 154.256 126.023 156.085C126.79 157.379 127.34 159.166 127.422 160.644C127.489 161.842 128.355 162.101 128.355 160.541C128.355 158.752 128.198 157.196 127.526 155.516C126.808 153.72 127.715 152.339 128.925 151.216C130.944 149.341 133.903 147.815 136.178 146.19C139.283 143.972 138.2 148.591 138.146 150.749C137.998 156.665 133.613 161.729 133.484 167.535C133.384 172.01 138.13 173.696 139.752 177.404C141.602 181.633 143.783 186.225 146.098 190.278C148.326 194.175 150.632 197.751 153.092 201.442C154.714 203.874 157.899 206.109 158.662 209.161C159.271 211.6 161.414 213.565 163.324 215.093C164.791 216.267 165.848 217.928 167.158 219.238C168.405 220.484 169.55 221.517 170.681 222.76C171.674 223.853 171.305 225.611 172.649 226.283C174.695 227.306 171.896 224.115 171.613 223.33C170.41 220 166.856 217.824 164.93 214.989C160.798 208.906 160.527 201.822 160.527 194.681" stroke="black" stroke-width="16" stroke-linecap="round"/>
<path d="M122.246 147.504C115.43 145.144 115.184 136.526 112.702 130.779C111.642 128.323 110.613 124.488 110.526 121.793C110.484 120.484 110.323 119.359 110.042 118.073C109.831 117.107 109.417 115.671 110.228 117.236C111.786 120.24 114.401 123.109 114.86 126.556C114.89 126.779 115.051 127.941 114.805 127.337C113.839 124.966 112.462 122.478 111.121 120.305C107.913 115.106 105.307 109.401 103.494 103.562C102.768 101.227 102.413 98.809 101.838 96.437C101.802 96.287 101.465 94.353 101.168 94.205C100.852 94.046 101.14 94.912 101.15 95.265C101.191 96.761 101.525 98.217 101.745 99.693C102.501 104.775 102.489 109.897 102.489 115.022C102.489 117.57 102.489 120.119 102.489 122.668C102.489 123.727 102.489 122.591 102.489 122.24C102.489 120.659 101.959 119.517 101.522 118.017C100.731 115.304 100.376 112.325 99.978 109.534C99.288 104.71 98.149 100.713 95.941 96.418C95.509 95.578 95.807 97.825 95.829 98.093C96.181 102.312 97.49 106.864 99.159 110.743C100.258 113.297 101.506 117.212 103.345 119.375C104.213 120.396 103.755 121.669 103.345 122.724C103.12 123.303 103.159 123.901 103.159 124.51C103.159 125.973 103.188 121.582 103.159 120.119C103.104 117.375 102.195 114.634 101.466 112.008C100.575 108.801 100.034 105.527 99.14 102.334C97.023 94.771 93.441 87.873 90.918 80.457C89.259 75.58 88.961 70.285 87.42 65.332C87.289 64.911 86.737 62.468 86.751 62.932C86.815 65.184 87.494 67.386 87.681 69.629C87.875 71.965 87.692 74.321 87.774 76.661C87.852 78.893 88.515 81.004 88.76 83.21C89.02 85.548 89.095 87.818 89.095 90.168C89.095 92.327 89.861 94.008 90.769 95.953C92.138 98.886 93.328 102.164 94.304 105.236C95.17 107.966 96.204 110.654 96.982 113.422C97.353 114.741 97.514 115.924 98.117 117.18C98.614 118.214 99.439 119.321 99.792 120.38C100.261 121.788 100.914 124.231 101.894 125.328C102.438 125.937 102.894 126.515 103.475 127.095C103.814 127.435 104.961 128.202 105.131 128.584C105.403 129.196 105.168 127.968 105.168 127.672C105.168 125.452 105.266 123.216 104.684 121.049C102.439 112.693 99.811 104.366 97.299 96.083C95.97 91.705 94.346 87.472 92.592 83.247C91.651 80.981 90.957 78.585 89.764 76.438C88.138 73.51 86.161 69.926 85.43 66.634C83.889 59.7 81.172 52.993 81.058 45.78C80.988 41.392 81.547 37.323 82.323 33.055C82.673 31.127 83.227 29.483 83.811 27.623C84.256 26.206 86.731 25.714 87.774 24.776C90.819 22.035 94.294 19.554 98.136 18.06C101.928 16.586 105.449 14.898 109.596 14.898C115.102 14.898 120.609 14.898 126.116 14.898C132.936 14.898 138.876 18.539 144.347 22.116C146.934 23.808 149.924 25.131 152.719 26.451C155.67 27.845 158.397 29.971 161.164 31.715C163.437 33.148 166.042 35.495 168.829 35.659C169.793 35.716 166.97 35.135 166.057 34.822C164.294 34.219 162.4 33.402 160.588 32.999C155.417 31.85 152.934 28.038 150.337 23.772C150.029 23.265 148.302 19.963 149.854 19.921C153.421 19.824 158.391 20.91 161.276 23.102C163.889 25.088 167.737 26.091 170.801 27.213C174.106 28.424 177.536 29.363 180.81 30.636C186.318 32.778 191.42 35.246 196.511 38.189C199.554 39.948 202.738 41.478 205.794 43.212C207.345 44.092 208.878 45.006 210.427 45.891C212.084 46.838 214.038 47.313 215.598 48.384C217.938 49.99 221.2 51.543 223.858 52.551C226.424 53.524 228.952 55.036 231.337 56.421C234.896 58.488 238.597 61.263 241.457 64.123" stroke="black" stroke-width="16" stroke-linecap="round"/>
<path d="M460.623 334.952C460.623 331.096 460.623 327.241 460.623 323.385C460.623 321.678 461.156 318.852 460.494 317.28C459.686 315.361 458.309 312.657 458.309 310.661C458.309 309.483 457.51 306.502 456.574 306.034" stroke="black" stroke-width="16" stroke-linecap="round"/>
<path d="M450.212 289.262C450.212 291.612 450.96 293.648 451.947 295.624" stroke="black" stroke-width="16" stroke-linecap="round"/>
<path d="M104.936 237.789C106.585 240.637 111.174 243.38 114.189 244.472C124.194 248.093 135.166 250.037 145.677 251.316C149.303 251.757 153.042 252.247 156.698 252.247C157.756 252.247 155.405 251.716 154.545 251.091C151.08 248.571 145.817 247.822 141.822 246.464C134.726 244.051 127.422 243.672 120.069 242.705C114.583 241.983 118.203 243.544 121.258 244.6C128.132 246.976 134.899 248.875 142.175 249.613C143.043 249.701 150.905 250.923 151.172 249.324C151.619 246.642 143.822 244.028 142.079 243.251C137.677 241.289 132.689 239.386 127.941 238.495C125.018 237.947 121.967 236.282 118.913 236.664C116.438 236.973 120.839 240.489 121.258 240.745C132.422 247.567 146.91 249.7 159.622 251.99C167.105 253.339 164.49 259.07 158.144 259.188C151.378 259.313 144.627 258.897 137.934 259.734C136.422 259.923 134.443 259.952 133.018 259.477C131.716 259.043 129.88 257.521 128.648 257.453C126.344 257.325 130.052 258.871 130.512 259.059C134.444 260.671 138.205 260.856 142.207 261.822C150.289 263.773 158.572 263.484 166.627 265.55C174.241 267.502 182.717 266.78 190.275 269.02C195.707 270.629 201.925 270.176 207.561 270.176C209.305 270.176 210.87 270.7 212.509 270.755C213.308 270.781 208.252 268.872 207.015 268.473C193.921 264.249 180.657 260.589 167.398 256.906C160.051 254.866 152.657 253.277 145.163 251.926C140.075 251.009 135.261 249.052 130.255 247.878C120.975 245.701 111.77 243.207 102.622 240.712C97.105 239.208 93.148 236.408 88.163 233.869C81.662 230.557 74.459 226.639 68.628 222.173C58.773 214.625 48.405 208.322 41.445 197.882C38.016 192.738 37.847 185.864 37.847 179.953C37.847 177.467 37.461 174.556 37.975 172.113C38.42 170.002 39.686 168.346 40.449 166.362C43.573 158.239 49.914 150.653 55.743 144.095C57.317 142.325 59.04 141.41 60.659 139.79C61.495 138.955 63.852 137.117 64.901 136.705C68.183 135.416 69.969 132.959 73.255 131.821C75.385 131.084 77.183 129.014 79.167 128.448C79.542 128.34 80.266 127.323 80.066 127.323C78.448 127.323 76.959 127.632 75.44 128.223C71.513 129.75 65.64 134.044 63.294 137.284C61.559 139.68 57.549 141.706 56.354 144.095" stroke="black" stroke-width="16" stroke-linecap="round"/>
<path d="M63.294 144.095C62.251 146.244 61.675 148.774 60.274 150.714C59.073 152.377 57.79 153.912 56.932 155.791C55 160.024 51.758 163.634 49.671 167.808C49.242 168.666 49.309 170.068 49.414 168.129C49.682 163.174 53.452 157.16 55.647 152.771C56.597 150.87 57.379 148.972 58.41 147.116C59.291 145.531 54.87 148.068 54.619 148.272C47.829 153.782 41.633 159.682 33.348 162.924C30.676 163.97 32.454 161.746 33.22 160.739C34.89 158.544 36.685 155.642 37.59 153.028C38.56 150.224 36.404 151.851 35.405 153.028C33.153 155.68 30.75 158.641 28.979 161.639C27.666 163.859 34.33 160.566 34.826 160.289C38.729 158.117 43.107 154.48 45.815 150.907C50.846 144.27 38.69 152.252 37.14 153.478C31.26 158.123 26.858 164.306 20.8173 168.836C15.7297 172.652 16.0497 180.594 16.8974 186.315C17.0225 187.16 17.5542 194.799 20.3675 192.549C21.4588 191.676 21.5824 190.238 21.6527 188.95C21.8096 186.073 23.1204 182.947 24.673 180.532C26.495 177.697 29.371 176.168 32.063 174.298C33.889 173.031 33.22 176.092 33.22 177.19C33.22 180.478 29.984 198.856 37.268 189.978C40.211 186.392 42.046 182.241 43.63 177.929C43.755 177.588 47.12 170.04 47.614 172.017C48.812 176.81 47.962 185.718 54.298 187.408C56.857 188.09 56.354 176.77 56.354 174.845C56.354 169.447 56.789 185.661 56.322 191.038C55.867 196.269 54.046 179.399 49.446 176.869C44.008 173.878 43.558 193.636 44.241 196.308C46.863 206.578 53.266 188.104 53.655 185.383C54.48 179.609 53.687 173.76 54.073 167.969C54.272 164.983 55.489 169.441 55.647 170.25C56.868 176.491 54.501 182.764 51.149 187.922C48.785 191.558 46.89 194.438 42.345 193.705C40.095 193.342 25.4121 185.586 25.2514 186.122C23.1775 193.035 26.4 207.958 32.384 212.534C36.643 215.79 27.106 203.16 23.8376 198.91C23.6484 198.665 19.594 193.331 18.8895 194.669C17.839 196.665 19.002 201.025 19.9177 202.83C20.3945 203.771 24.0607 208.522 25.4441 207.907C27.368 207.052 22.5886 203.188 22.2311 202.83C19.9222 200.522 18.0169 198.672 15.098 197.111C12.9409 195.957 17.2814 200.362 17.9256 200.806C18.3662 201.11 23.0672 204.66 23.3235 204.148C24.1085 202.578 22.8956 199.384 22.5202 197.882C22.4232 197.494 20.56 193.015 20.5281 193.095C19.4238 195.856 23.1628 201.807 24.3196 203.923C28.799 212.116 36.316 218.125 43.566 223.78C46.741 226.256 50.039 228.428 53.526 230.431C54.269 230.858 55.616 231.941 56.579 231.941C57.168 231.941 56.27 229.787 56.065 229.499C55.222 228.319 57.482 232.048 58.41 233.162C58.764 233.586 62.171 236.383 62.041 235.668C61.53 232.856 57.031 229.79 55.165 227.925C50.887 223.647 45.603 220.833 41.22 216.775C38.76 214.497 40.457 217.579 41.477 218.735C44.781 222.479 49.75 226.259 54.362 228.149C55.102 228.453 63.481 230.982 63.166 229.563C62.46 226.388 58.561 223.138 56.322 221.016C55.525 220.262 48.98 214.46 51.277 218.799C53.883 223.721 57.957 228.124 62.427 231.363C62.952 231.743 72.713 237.932 73.03 236.825C73.414 235.479 69.005 232.4 68.017 231.844C66.641 231.07 70.06 236.697 70.588 237.21C76.119 242.592 81.995 247.107 89.641 247.107C91.151 247.107 93.429 249.106 94.814 249.613C98.188 250.847 101.441 252.241 104.936 253.115C108.964 254.122 113.706 255.128 117.37 257.163C120.937 259.145 120.101 253.711 119.362 251.926C117.183 246.66 114.138 241.735 111.587 236.632C111.202 235.863 110.039 234.131 111.683 234.351C112.135 234.411 116.933 236.539 116.246 235.347C115.069 233.308 112.601 232.346 110.719 231.17C106.961 228.821 102.787 226.759 98.831 224.744C94.823 222.702 91.176 220.249 87.264 218.125C83.591 216.131 79.568 212.421 76.596 209.449C73.039 205.892 69.088 202.439 65.865 198.589C64.953 197.5 61.888 192.677 60.402 192.677C59.434 192.677 58.467 201.375 58.089 202.509C57.046 205.639 54.196 210.64 50.121 209.899C45.345 209.031 41.825 204.197 37.333 203.698C34.803 203.417 38.662 206.788 39.1 207.2C43.746 211.574 49.295 213.728 55.261 215.747C55.923 215.971 65.627 219.661 62.973 215.49C61.848 213.722 60.861 211.821 59.31 210.381C58.816 209.922 57.311 208.601 57.896 208.935C60.18 210.24 61.903 212.224 64.451 213.144C67.816 214.359 71.264 215.282 74.572 216.679C79.575 218.791 84.817 220.648 89.256 223.876C93.466 226.938 98.876 227.741 103.393 230.27C109.652 233.775 115.308 238.836 121.129 242.994" stroke="black" stroke-width="16" stroke-linecap="round"/>
<path d="M101.153 289.868C101.153 293.789 99.348 297.749 99.348 301.78C99.348 304.249 98.949 307.266 98.185 309.641C97.902 310.522 97.945 311.227 97.904 312.168C97.822 314.06 96.968 316.272 96.46 318.104C95.844 320.33 95.738 322.14 95.738 324.441C95.738 327.704 94.542 331.041 94.014 334.268C93.539 337.167 94.014 340.324 93.212 343.132C92.816 344.518 92.111 349.05 93.212 350.151" stroke="black" stroke-width="16" stroke-linecap="round"/>
<path d="M92.129 331.741C91.496 341.227 87.797 350.45 87.797 359.937C87.797 369.214 88.176 341.362 89.201 332.142C89.374 330.582 89.963 328.873 89.963 327.329C89.963 325.279 90.324 326.987 90.324 327.951C90.324 331.193 90.507 334.47 89.963 337.677C89.081 342.868 87.495 347.919 87.436 353.239C87.367 359.446 86.714 365.614 86.714 371.81C86.714 373.515 86.227 374.598 86.373 372.11C86.647 367.453 87.125 363.2 86.714 358.473C86.322 353.967 85.631 349.732 85.631 345.178C85.631 341.915 85.631 338.653 85.631 335.391C85.631 332.958 86.439 330.976 86.995 328.693C87.363 327.181 87.322 324.435 88.519 323.238C88.802 322.955 88.533 324.041 88.519 324.441C88.484 325.419 88.136 326.531 87.777 327.43C86.213 331.339 85.052 335.735 84.348 339.883C83.147 346.952 84.251 354.185 83.806 361.301C83.68 363.325 82.869 366.056 82.222 367.999C81.39 370.495 80.394 373 79.314 375.399C79.197 375.659 78.156 378.004 79.133 377.946C79.703 377.913 80.276 376.838 80.738 376.502C81.74 375.774 82.729 374.994 83.746 374.256C87.205 371.746 88.422 367.823 89.582 363.908C90.47 360.912 92.04 358.16 93.292 355.285C95.095 351.145 97.543 346.776 97.543 342.209C97.543 340.377 98.588 339.77 98.907 341.929C99.479 345.808 99.709 349.46 99.709 353.4C99.709 356.715 99.709 360.031 99.709 363.347C99.709 364.819 99.332 366.379 100.431 367.478" stroke="black" stroke-width="16" stroke-linecap="round"/>
<path d="M98.987 354.844C96.759 357.465 96.637 362.806 96.099 366.034C95.288 370.905 92.851 375.414 92.851 380.393C92.851 382.65 93.354 384.045 94.736 385.888C95.531 386.948 96.52 388.309 94.736 386.971C93.031 385.692 91.361 384.327 89.682 383C88.645 382.18 87.556 382.256 86.995 381.195C86.42 380.11 85.631 381.101 85.631 381.837C85.631 383.284 85.111 385.474 86.353 386.449C87.832 387.611 89.173 389.199 90.685 390.44C91.612 391.201 92.22 392.269 93.232 392.927C93.99 393.42 94.866 393.805 95.558 394.391C97.779 396.27 101.059 398.252 104.061 398.502C109.738 398.975 115.027 399.97 120.325 397.419C128.672 393.4 138.697 394.72 147.358 391.383C149.64 390.503 152.09 390.099 154.337 389.136C155.844 388.49 157.134 387.434 158.629 386.77C161.622 385.44 164.918 384.798 168.134 384.364C174.747 383.47 180.748 380.453 186.785 377.866C189.709 376.613 191.779 373.805 194.205 371.81C196.533 369.894 199.317 368.558 201.946 367.117C207.563 364.037 213.201 360.854 219.152 358.474C221.807 357.412 223.848 355.745 226.372 354.483C228.731 353.303 231.013 352.264 233.27 350.853C238.996 347.275 245.295 345.297 250.357 340.585C252.359 338.721 254.185 337.169 256.533 335.712C259.056 334.146 260.927 331.787 263.231 329.976C264.8 328.744 266.773 328.036 268.285 326.848C269.958 325.534 266.447 325.966 265.758 325.966C262.514 325.966 260.122 325.706 257.376 327.57C253.697 330.066 249.082 331.923 247.108 336.153C246.226 338.044 244.605 339.906 242.656 340.685C241.682 341.075 243.421 337.421 243.538 337.196C245.717 333.015 249.631 330.637 252.402 326.968C253.025 326.143 257.016 321.527 254.006 323.82C249.79 327.032 245.221 331.017 241.914 335.15C237.248 340.983 230.58 343.578 224.226 346.922C216.682 350.893 209.111 354.945 202.066 359.697C198.889 361.84 195.343 363.503 191.738 364.791C187.363 366.353 183.242 368.581 178.763 369.924C174.333 371.253 169.142 371.438 164.565 372.01C159.434 372.651 154.415 373.579 149.243 373.895C139.743 374.475 129.155 374.6 120.205 371.007C113.354 368.258 105.172 365.143 99.87 359.697C98.745 358.542 98.202 357.218 98.265 355.646C98.303 354.707 99.207 355.996 99.428 356.207C100.956 357.667 102.948 358.587 104.723 359.697C109.635 362.767 114.251 363.868 119.964 363.868C120.705 363.868 124.723 364.048 124.075 363.688C122.739 362.946 120.702 363.288 119.162 362.585C115.478 360.903 111.894 358.859 108.072 357.551C106.546 357.029 104.767 356.45 103.319 355.726C101.321 354.727 103.453 356.572 104.061 357.21C105.676 358.906 108.549 361.671 110.899 362.063" stroke="black" stroke-width="16" stroke-linecap="round"/>
<path d="M111.982 360.619C113.383 361.627 114.482 362.922 115.953 363.868C118.245 365.341 120.583 366.256 123.112 367.277C128.409 369.416 134.162 369.283 139.778 369.283C149.185 369.283 157.855 365.52 167.192 364.971C171.447 364.721 175.652 363.234 179.846 362.424C182.147 361.98 184.421 361.921 186.624 361.06C188.859 360.187 191.12 359.424 193.483 359.095C198.417 358.408 203.329 355.102 206.999 351.956C211.51 348.089 215.777 344.374 221.278 341.929C225.602 340.007 230.398 338.51 234.153 335.531C234.454 335.292 236.87 333.18 236.82 333.406C236.601 334.391 235.051 335.7 234.534 336.614C230.688 343.418 225.921 350.643 220.636 356.368C219.777 357.298 218.328 358.595 217.227 359.195C216.308 359.696 216.039 361.278 215.402 362.043C214.064 363.649 213.292 366.605 212.334 368.521C211.77 369.649 207.904 372.589 210.008 370.346C213.695 366.412 218.875 364.296 222.983 360.82C223.25 360.594 224.567 360.196 224.567 359.717C224.567 358.833 221.63 360.903 221.499 361C213.819 366.689 205.064 370.333 196.651 374.778C193.273 376.562 189.41 378.851 186.704 381.556C185.707 382.553 185.277 383.943 184.258 384.925C183.436 385.716 181.625 386.124 180.568 386.449C173.641 388.581 166.788 391.367 160.193 394.551C157.031 396.077 153.368 396.158 150.065 397.258C146.178 398.554 142.107 398.018 138.153 399.043C132.615 400.479 126.074 399.605 120.365 399.605C117.537 399.605 115.14 399.578 112.424 398.682C112.041 398.556 107.772 398.11 109.255 397.72C114.886 396.238 120.933 396.246 126.662 395.193C132.324 394.152 139.718 393.669 144.109 389.337C146 387.472 148.006 384.229 148.722 381.636C149.159 380.052 140.863 381.281 140.419 381.355C135.545 382.168 130.768 383.163 125.82 383.481C120.157 383.845 114.481 383.619 108.814 383.802C105.74 383.901 102.621 384.021 99.629 384.785C99.079 384.925 97.543 385.55 97.543 384.444C97.543 381.199 106.626 381.351 108.373 381.275C109.001 381.248 116.902 381.833 114.991 380.313C112.095 378.009 108.037 376.754 104.763 375.058C103.371 374.337 98.099 371.805 98.265 369.724C98.358 368.565 102.474 370.613 102.958 370.807C105.136 371.678 106.945 373.595 108.734 375.058" stroke="black" stroke-width="16" stroke-linecap="round"/>
<path d="M119.924 370.005C119.924 371.15 119.958 369.575 120.004 369.283C120.186 368.123 120.285 367.073 120.285 365.894C120.285 364.924 119.286 363.171 119.403 363.226C120.723 363.848 121.507 366.045 122.992 366.375C123.652 366.521 123.509 365.907 123.313 365.493C122.783 364.373 121.254 363.891 120.205 363.427C119.898 363.291 116.133 360.852 116.876 360.639C118.456 360.188 120.515 362.026 122.17 362.063C123.068 362.084 123.848 361.712 124.597 362.585C125.242 363.337 126.087 362.321 126.061 361.622C125.935 358.365 115.241 359.221 112.985 359.897C110.195 360.735 109.006 364.144 107.47 366.415C104.851 370.287 102.547 374.199 98.386 376.703C94.932 378.781 92.168 378.226 89.963 375.018C87.885 371.996 86.358 368.586 84.909 365.232C83.847 362.773 84.187 360.014 84.187 357.391C84.187 355.883 84.55 355.566 85.992 356.288" stroke="black" stroke-width="16" stroke-linecap="round"/>
<path d="M486.293 229.297C484.978 230.612 483.849 232.029 482.202 232.955C477.457 235.624 471.409 235.997 466.153 236.873C463.554 237.306 464.909 236.363 466.142 235.314C468.631 233.196 470.802 230.751 473.328 228.669C474.902 227.372 480.04 224.033 478.328 225.141C477.616 225.602 477.058 226.415 476.488 227.024C474.68 228.957 472.979 230.938 471.412 233.074C470.953 233.701 466.949 238.231 468.317 239.124C470.874 240.791 474.487 237.449 476.163 235.877C477.621 234.51 478.909 232.995 480.211 231.483C481.121 230.427 483.973 228.141 483.804 226.548C483.698 225.555 481.589 225.765 481.001 225.845C478.554 226.175 476.097 227.833 473.956 228.962C470.614 230.723 467.353 232.618 463.977 234.319C461.978 235.326 459.77 236.158 457.863 237.338C455.73 238.659 462.251 234.798 464.042 233.042C465.884 231.235 467.214 228.734 468.133 226.332C468.868 224.411 468.311 223.363 466.293 223.269C463.109 223.121 459.739 223.066 456.575 223.388C456.095 223.437 452.032 223.896 453.566 224.817" stroke="black" stroke-width="16" stroke-linecap="round"/>
<path d="M445.385 228.907C447.607 228.448 449.493 226.865 451.467 225.834C454.43 224.285 457.745 223.119 460.904 222.046C465.613 220.446 470.338 218.89 475.038 217.263C476.401 216.79 480.479 215.389 479.064 215.672C478.388 215.807 477.488 216.738 476.943 217.133C475.265 218.349 473.491 219.632 471.986 221.05C468.95 223.91 465.881 226.739 462.841 229.6C461.208 231.137 458.666 233.223 458.631 235.726C458.593 238.482 461.748 240.4 461.748 243.128C461.748 244.829 460.283 245.648 459.346 246.829C459.182 247.035 458.784 247.31 459.172 247.175C459.945 246.908 460.629 246.453 461.38 246.147C463.075 245.459 464.747 244.685 466.229 243.615C468.216 242.18 470.576 241.967 472.96 241.57C476.26 241.02 479.394 240.056 482.354 238.453C485.058 236.988 487.056 234.488 489.248 232.392C490.764 230.942 492.373 229.631 493.501 227.836C494.307 226.554 494.986 225.184 495.849 223.94C498.257 220.47 500.302 216.592 502.072 212.761C503.634 209.38 506.127 206.398 506.65 202.631C506.751 201.905 506.823 201.113 506.736 200.38C506.646 199.613 504.897 199.882 504.41 199.882" stroke="black" stroke-width="16" stroke-linecap="round"/>
<path d="M497.786 200.661C497.05 201.138 496.609 202.222 496.185 202.956C495.106 204.821 493.658 206.451 492.267 208.085C490.177 210.541 487.925 212.852 485.795 215.271C484.977 216.202 483.291 217.262 482.819 218.442C481.666 221.326 485.815 212.991 487.051 210.142C487.991 207.974 488.981 206.073 490.395 204.168C491.903 202.135 493.698 200.325 495.254 198.324" stroke="black" stroke-width="16" stroke-linecap="round"/>
<path d="M490.774 200.077C488.936 201.535 487.704 203.648 486.033 205.282C484.914 206.378 483.688 207.34 482.332 208.129C480.531 209.176 478.989 210.303 477.527 211.765" stroke="black" stroke-width="16" stroke-linecap="round"/>
<path d="M462.386 124.952C464.397 125.354 466.2 126.921 468.261 127.251C470.279 127.574 472.405 128.808 474.212 129.728C477.156 131.228 480.122 132.411 482.857 134.262C484.605 135.444 486.604 136.182 488.361 137.365C490.23 138.623 492.073 140.034 493.878 141.387C496.737 143.532 500.107 145.682 502.051 148.756C503.125 150.456 504.436 152.129 505.269 153.966C506.306 156.253 506.948 158.74 507.9 161.066C510.087 166.413 511.118 172.123 511.118 177.872C511.118 180.136 511.148 182.558 510.211 184.666C509.922 185.316 509.425 186.786 508.589 186.786" stroke="black" stroke-width="16" stroke-linecap="round"/>
<path d="M489.51 144.491C489.51 146.237 490.985 147.737 491.796 149.19C493.101 151.528 494.102 154.025 494.848 156.597C495.902 160.226 496.199 163.909 496.981 167.579C497.531 170.16 498.693 172.732 498.986 175.344C499.394 178.974 499.81 182.813 498.833 186.377C498.444 187.795 497.655 188.844 496.994 190.106C496.637 190.786 495.655 191.613 496.866 191.613" stroke="black" stroke-width="16" stroke-linecap="round"/>
<path d="M504.911 144.72C506.124 143.642 509.608 148.396 510.3 149.088C513.804 152.591 517.588 155.98 520.772 159.777C524.986 164.801 529.905 169.503 533.083 175.28C534.545 177.938 535.643 180.539 535.892 183.619C536.193 187.339 536.471 191.992 535.024 195.508C533.827 198.413 532.133 200.812 530.656 203.566C529.283 206.126 526.815 207.813 524.68 209.657C523.564 210.621 522.403 211.334 521.347 212.39C520.308 213.429 519.285 214.365 518.358 215.532C515.657 218.934 511.994 221.533 508.896 224.535C507.394 225.989 505.767 227.563 504.043 228.749C503.092 229.402 501.53 230.096 500.799 231.009C500.333 231.592 500.984 229.49 501.348 228.838C502.392 226.971 502.762 224.817 503.813 222.925C504.882 221.001 505.631 218.955 506.291 216.847C507.2 213.943 508.4 211.302 510.083 208.751C512.726 204.743 516.371 201.518 518.754 197.308C521.2 192.989 522.862 188.075 523.275 183.121C523.582 179.432 522.611 175.932 522.611 172.304" stroke="black" stroke-width="16" stroke-linecap="round"/>
<path d="M520.083 174.373C525.055 186.805 518.612 199.198 512.305 209.708C510.433 212.829 508.199 215.784 506.189 218.826C504.592 221.242 503.074 223.439 500.876 225.352C498.262 227.627 496.997 231.018 494.58 233.435C493.419 234.596 491.385 236.136 490.66 237.586" stroke="black" stroke-width="16" stroke-linecap="round"/>
<path d="M441.251 80.015L450.615 75.015L457.615 65.015L457.115 51.015L453.115 44.015L448.115 39.515L440.115 35.515L429.615 36.515L424.115 39.515L419.115 44.015L415.115 50.015L414.615 54.015V61.015V68.515L396.115 100.515L374.115 138.015L350.615 175.015L327.115 212.015L302.615 248.015L286.615 270.515L280.115 282.515L281.615 294.515M281.615 294.515L309.115 321.015L353.115 345.015L370.115 353.015L387.115 358.015L407.115 360.515L427.615 358.015L440.115 349.515L447.115 340.015L450.115 325.515V313.015L448.115 300.515L444.615 287.515L435.615 265.015L415.615 268.015L392.115 272.515L368.115 276.015L345.115 278.515L375.115 241.589L394.115 240.015L429.615 229.015L454.115 218.015L463.615 212.015L473.615 205.015L481.115 197.515L487.115 190.015L489.115 184.015L490.615 177.515L490.115 167.015L488.365 158.765L484.615 151.015L478.615 144.515L470.615 137.015L457.615 129.015L463.615 116.515L490.115 129.015L501.615 134.515L514.115 142.015L525.615 149.015L535.115 159.015L543.615 170.015L546.615 177.515L548.115 185.015V192.515L545.115 201.515L536.615 214.515L524.615 225.515L510.615 235.015L490.615 245.515L473.615 252.015L442.115 263.015L456.115 290.515L465.115 310.015L473.115 332.015L477.615 348.015L479.615 367.515V380.015L474.115 394.515L465.615 403.015L458.615 407.515L447.615 411.515H427.615L413.115 409.015L385.615 401.015L359.615 388.515L336.115 375.515L313.615 362.515L291.615 346.515L249.365 313.015L220.115 247.015L101.74 259.515L140.615 269.015L163.615 273.015L186.615 276.015L199.115 277.015H203.615H211.615L249.365 316.265L227.115 330.515L205.615 343.015L181.115 353.515L156.615 360.015H147.615H138.615L129.115 358.015L119.115 355.015L111.615 348.015L107.115 340.515L105.115 334.015L103.615 328.515V321.515V316.015V311.015L105.115 301.015L107.615 290.015L111.615 278.015L117.115 266.015L164.615 240.015L153.615 238.015L145.115 235.515L136.115 233.015L142.615 219.015L150.115 207.515L133.115 231.515L121.615 228.015L110.615 223.515L102.115 219.265L93.615 215.015L70.615 196.515L64.615 186.015L61.615 175.515L62.115 168.515L63.115 163.515L64.115 158.515L67.115 153.015L71.115 147.021L75.615 142.015L79.615 138.015L83.115 135.515L87.615 132.273L91.615 130.015L87.615 119.015L71.615 125.015L63.115 128.515L56.115 132.273L41.115 140.015L27.115 150.015L19.1154 156.515L12.6154 164.015L8.11539 172.015L4.6153 182.515L5.6153 195.515L8.11539 201.515L12.6154 209.515L20.1153 217.515L31.115 227.015L43.615 235.515L59.115 244.015L75.115 250.515L92.865 256.515L110.615 262.515L101.115 281.515L88.615 307.015L81.115 327.015L74.615 351.015L73.115 369.515L74.615 382.515L77.615 391.515L82.115 398.015L87.115 403.015L94.615 407.015L108.615 411.015H121.115L136.115 409.515L151.615 407.015L178.115 396.015L204.615 383.015L229.615 367.015L254.115 351.015L277.115 334.015L298.615 317.015L318.115 299.015L341.615 278.515L362.115 256.515L402.615 210.015L437.115 160.015L452.115 133.515L465.615 106.515L472.115 92.515L475.615 76.015L478.615 62.015L479.615 49.515V39.515L477.115 30.015L472.615 20.515L463.615 12.015L457.115 9.01501L448.115 6.51501L435.615 5.01501L419.115 6.51501L404.615 10.015L380.115 18.515L357.615 29.015L314.115 54.516L276.114 82.016L252.115 63.517L228.114 47.516L203.114 32.516L161.114 14.516L138.114 7.52002L117.616 5.02002H108.117L97.116 7.52002L86.616 14.52L77.616 24.02L73.617 35.52V54.021L75.617 68.521L78.616 83.52L83.562 99.021L108.117 147.021L135.617 189.521L153.117 212.521L161.615 223.015L171.617 234.021M281.615 294.515L427.615 245.015L392.115 195.515L432.615 249.015L380.615 180.515L423.615 131.015L442.115 77.515L399.115 153.515L385.615 173.015L371.615 192.515L350.615 219.515L329.615 245.015L304.615 270.515L281.615 294.515Z" stroke="black" stroke-width="9"/>
</svg>
